<?xml version="1.0" encoding="UTF-8"?>
<svg version="1.1" xmlns="http://www.w3.org/2000/svg" width="275" height="275">
<path d="M0 0 C90.75 0 181.5 0 275 0 C275 90.75 275 181.5 275 275 C184.25 275 93.5 275 0 275 C0 184.25 0 93.5 0 0 Z " fill="#E7EDE5" transform="translate(0,0)"/>
<path d="M0 0 C5.94 0 11.88 0 18 0 C18 6.27 18 12.54 18 19 C63.54 19 109.08 19 156 19 C156 12.73 156 6.46 156 0 C162.27 0 168.54 0 175 0 C175 6.6 175 13.2 175 20 C181.27 20 187.54 20 194 20 C194 38.81 194 57.62 194 77 C187.73 77 181.46 77 175 77 C175 83.27 175 89.54 175 96 C117.25 96 59.5 96 0 96 C0 89.73 0 83.46 0 77 C-6.6 77 -13.2 77 -20 77 C-20 57.86 -20 38.72 -20 19 C-13.4 19 -6.8 19 0 19 C0 12.73 0 6.46 0 0 Z " fill="#2C2E37" transform="translate(51,148)"/>
<path d="M0 0 C44.55 0 89.1 0 135 0 C135 18.81 135 37.62 135 57 C128.73 57.33 122.46 57.66 116 58 C115.67 70.54 115.34 83.08 115 96 C109.06 96 103.12 96 97 96 C96.67 83.46 96.34 70.92 96 58 C76.86 58 57.72 58 38 58 C37.67 70.54 37.34 83.08 37 96 C31.06 96 25.12 96 19 96 C19 83.13 19 70.26 19 57 C12.73 57 6.46 57 0 57 C0 38.19 0 19.38 0 0 Z " fill="#2A2D35" transform="translate(71,31)"/>
<path d="M0 0 C4.44569416 0.01038161 8.89139429 0.01482884 13.33709717 0.01983643 C22.00052651 0.03043878 30.66392043 0.04796992 39.32733154 0.06866455 C39.32733154 6.66866455 39.32733154 13.26866455 39.32733154 20.06866455 C7.31733154 20.06866455 -24.69266846 20.06866455 -57.67266846 20.06866455 C-57.67266846 13.79866455 -57.67266846 7.52866455 -57.67266846 1.06866455 C-38.44438302 -0.11734431 -19.25567967 -0.04983517 0 0 Z " fill="#E4EAE2" transform="translate(147.67266845703125,48.93133544921875)"/>
<path d="M0 0 C1.65 0 3.3 0 5 0 C5 1.32 5 2.64 5 4 C6.32 4 7.64 4 9 4 C9 5.65 9 7.3 9 9 C10.65 9 12.3 9 14 9 C14 16.59 14 24.18 14 32 C12.35 32 10.7 32 9 32 C9 29.03 9 26.06 9 23 C4.71 23 0.42 23 -4 23 C-4 25.97 -4 28.94 -4 32 C-5.65 32 -7.3 32 -9 32 C-9 24.41 -9 16.82 -9 9 C-7.68 9 -6.36 9 -5 9 C-5 7.35 -5 5.7 -5 4 C-3.35 4 -1.7 4 0 4 C0 2.68 0 1.36 0 0 Z " fill="#DFE5DE" transform="translate(96,183)"/>
<path d="M0 0 C1.65 0 3.3 0 5 0 C5 1.32 5 2.64 5 4 C6.65 4 8.3 4 10 4 C10 6.97 10 9.94 10 13 C11.32 13 12.64 13 14 13 C14 10.03 14 7.06 14 4 C15.32 4 16.64 4 18 4 C18 2.68 18 1.36 18 0 C19.65 0 21.3 0 23 0 C23 1.32 23 2.64 23 4 C24.65 4 26.3 4 28 4 C28 13.24 28 22.48 28 32 C26.35 32 24.7 32 23 32 C23 23.09 23 14.18 23 5 C21.68 5 20.36 5 19 5 C19 7.97 19 10.94 19 14 C17.35 14 15.7 14 14 14 C14 18.29 14 22.58 14 27 C12.35 27 10.7 27 9 27 C9 22.71 9 18.42 9 14 C7.68 14 6.36 14 5 14 C5 11.03 5 8.06 5 5 C3.68 5 2.36 5 1 5 C1 13.91 1 22.82 1 32 C-0.65 32 -2.3 32 -4 32 C-4 22.76 -4 13.52 -4 4 C-2.68 4 -1.36 4 0 4 C0 2.68 0 1.36 0 0 Z " fill="#B9BEBA" transform="translate(120,183)"/>
<path d="M0 0 C6.93 0 13.86 0 21 0 C21 6.27 21 12.54 21 19 C14.07 19 7.14 19 0 19 C0 12.73 0 6.46 0 0 Z " fill="#3EEEB5" transform="translate(90,50)"/>
<path d="M0 0 C4.62 0 9.24 0 14 0 C14 1.32 14 2.64 14 4 C15.65 4 17.3 4 19 4 C19 5.98 19 7.96 19 10 C17.35 10 15.7 10 14 10 C13.67 8.35 13.34 6.7 13 5 C9.04 5 5.08 5 1 5 C1 7.64 1 10.28 1 13 C5.29 13 9.58 13 14 13 C14 14.65 14 16.3 14 18 C15.32 18 16.64 18 18 18 C18 20.97 18 23.94 18 27 C16.68 27 15.36 27 14 27 C14 28.65 14 30.3 14 32 C9.38 32 4.76 32 0 32 C0 30.35 0 28.7 0 27 C-1.32 27 -2.64 27 -4 27 C-4 25.35 -4 23.7 -4 22 C-2.35 22 -0.7 22 1 22 C1 23.32 1 24.64 1 26 C4.96 26 8.92 26 13 26 C13 23.36 13 20.72 13 18 C8.71 18 4.42 18 0 18 C0 16.68 0 15.36 0 14 C-1.65 14 -3.3 14 -5 14 C-5 10.7 -5 7.4 -5 4 C-3.35 4 -1.7 4 0 4 C0 2.68 0 1.36 0 0 Z " fill="#A6AAA8" transform="translate(187,183)"/>
<path d="M0 0 C4.62 0 9.24 0 14 0 C14 1.32 14 2.64 14 4 C15.65 4 17.3 4 19 4 C19 5.65 19 7.3 19 9 C17.02 9 15.04 9 13 9 C13 7.68 13 6.36 13 5 C9.04 5 5.08 5 1 5 C1 7.64 1 10.28 1 13 C3.97 13 6.94 13 10 13 C10 14.65 10 16.3 10 18 C7.03 18 4.06 18 1 18 C1 20.97 1 23.94 1 27 C5.29 27 9.58 27 14 27 C14 28.65 14 30.3 14 32 C9.38 32 4.76 32 0 32 C0 30.35 0 28.7 0 27 C-1.32 27 -2.64 27 -4 27 C-4 19.41 -4 11.82 -4 4 C-2.68 4 -1.36 4 0 4 C0 2.68 0 1.36 0 0 Z " fill="#D8DED7" transform="translate(158,183)"/>
<path d="M0 0 C5.94 0 11.88 0 18 0 C18 5.94 18 11.88 18 18 C12.06 18 6.12 18 0 18 C0 12.06 0 6.12 0 0 Z " fill="#2A2C35" transform="translate(188,129)"/>
<path d="M0 0 C5.94 0 11.88 0 18 0 C18 5.94 18 11.88 18 18 C12.06 18 6.12 18 0 18 C0 12.06 0 6.12 0 0 Z " fill="#2A2C35" transform="translate(71,129)"/>
<path d="M0 0 C4.62 0 9.24 0 14 0 C14 1.32 14 2.64 14 4 C15.65 4 17.3 4 19 4 C19 7.3 19 10.6 19 14 C17.35 14 15.7 14 14 14 C14 11.03 14 8.06 14 5 C9.71 5 5.42 5 1 5 C1 12.26 1 19.52 1 27 C5.29 27 9.58 27 14 27 C14 28.65 14 30.3 14 32 C9.38 32 4.76 32 0 32 C0 30.35 0 28.7 0 27 C-1.32 27 -2.64 27 -4 27 C-4 19.41 -4 11.82 -4 4 C-2.68 4 -1.36 4 0 4 C0 2.68 0 1.36 0 0 Z " fill="#BCC1BD" transform="translate(62,183)"/>
<path d="M0 0 C1.32 0 2.64 0 4 0 C4 1.32 4 2.64 4 4 C5.65 4 7.3 4 9 4 C9 6.97 9 9.94 9 13 C4.71 13 0.42 13 -4 13 C-4 10.03 -4 7.06 -4 4 C-2.68 4 -1.36 4 0 4 C0 2.68 0 1.36 0 0 Z " fill="#383B42" transform="translate(96,188)"/>
<path d="M0 0 C4.62 0 9.24 0 14 0 C14 1.32 14 2.64 14 4 C15.65 4 17.3 4 19 4 C19 5.65 19 7.3 19 9 C17.02 9 15.04 9 13 9 C13 7.68 13 6.36 13 5 C9.04 5 5.08 5 1 5 C1 7.64 1 10.28 1 13 C0.67 13 0.34 13 0 13 C0 10.36 0 7.72 0 5 C-1.32 4.67 -2.64 4.34 -4 4 C-2.68 4 -1.36 4 0 4 C0 2.68 0 1.36 0 0 Z " fill="#C1C6C1" transform="translate(158,183)"/>
<path d="M0 0 C1.32 0 2.64 0 4 0 C4 8.58 4 17.16 4 26 C2.68 26 1.36 26 0 26 C0 17.42 0 8.84 0 0 Z " fill="#E9EFE7" transform="translate(143,188)"/>
<path d="M0 0 C1.32 0 2.64 0 4 0 C4 8.58 4 17.16 4 26 C2.68 26 1.36 26 0 26 C0 17.42 0 8.84 0 0 Z " fill="#E9EFE7" transform="translate(116,188)"/>
<path d="M0 0 C1.65 0 3.3 0 5 0 C5 1.65 5 3.3 5 5 C7.97 5 10.94 5 14 5 C14 7.97 14 10.94 14 14 C12.35 14 10.7 14 9 14 C9 12.68 9 11.36 9 10 C7.35 10 5.7 10 4 10 C4 8.35 4 6.7 4 5 C2.68 5 1.36 5 0 5 C0 3.35 0 1.7 0 0 Z " fill="#E5EBE3" transform="translate(67,196)"/>
<path d="M0 0 C1.32 0 2.64 0 4 0 C4 7.26 4 14.52 4 22 C2.68 22 1.36 22 0 22 C0 14.74 0 7.48 0 0 Z " fill="#E9EFE7" transform="translate(58,188)"/>
<path d="M0 0 C5.61 0 11.22 0 17 0 C17 1.65 17 3.3 17 5 C11.39 5 5.78 5 0 5 C0 3.35 0 1.7 0 0 Z " fill="#42E6B1" transform="translate(211,209)"/>
<path d="M0 0 C1.65 0 3.3 0 5 0 C5 1.32 5 2.64 5 4 C6.32 4 7.64 4 9 4 C9 5.65 9 7.3 9 9 C7.35 9 5.7 9 4 9 C4 7.68 4 6.36 4 5 C2.68 5 1.36 5 0 5 C0 6.32 0 7.64 0 9 C-1.32 9 -2.64 9 -4 9 C-4 11.97 -4 14.94 -4 18 C-4.33 18 -4.66 18 -5 18 C-5 13.38 -5 8.76 -5 4 C-3.35 4 -1.7 4 0 4 C0 2.68 0 1.36 0 0 Z " fill="#D5DAD4" transform="translate(96,183)"/>
<path d="M0 0 C0.33 0 0.66 0 1 0 C1 5.61 1 11.22 1 17 C6.61 17 12.22 17 18 17 C18 17.33 18 17.66 18 18 C12.39 18 6.78 18 1 18 C1 24.27 1 30.54 1 37 C0.67 37 0.34 37 0 37 C0 30.73 0 24.46 0 18 C-5.61 18 -11.22 18 -17 18 C-17 17.67 -17 17.34 -17 17 C-11.39 17 -5.78 17 0 17 C0 11.39 0 5.78 0 0 Z " fill="#D5DBD5" transform="translate(206,130)"/>
<path d="M0 0 C4.62 0 9.24 0 14 0 C14 1.65 14 3.3 14 5 C9.38 5 4.76 5 0 5 C0 3.35 0 1.7 0 0 Z " fill="#D8DED7" transform="translate(187,210)"/>
<path d="M0 0 C1.65 0 3.3 0 5 0 C5 1.65 5 3.3 5 5 C3.68 5 2.36 5 1 5 C1 13.91 1 22.82 1 32 C-0.65 32 -2.3 32 -4 32 C-2.68 31.67 -1.36 31.34 0 31 C0 22.42 0 13.84 0 5 C-1.32 4.67 -2.64 4.34 -4 4 C-2.68 4 -1.36 4 0 4 C0 2.68 0 1.36 0 0 Z " fill="#C5CAC5" transform="translate(120,183)"/>
<path d="M0 0 C4.29 0 8.58 0 13 0 C13 1.32 13 2.64 13 4 C8.71 4 4.42 4 0 4 C0 2.68 0 1.36 0 0 Z " fill="#E9EFE7" transform="translate(159,210)"/>
<path d="M0 0 C4.29 0 8.58 0 13 0 C13 1.32 13 2.64 13 4 C8.71 4 4.42 4 0 4 C0 2.68 0 1.36 0 0 Z " fill="#E9EFE7" transform="translate(63,210)"/>
<path d="M0 0 C4.29 0 8.58 0 13 0 C13 1.32 13 2.64 13 4 C8.71 4 4.42 4 0 4 C0 2.68 0 1.36 0 0 Z " fill="#E9EFE7" transform="translate(188,197)"/>
<path d="M0 0 C1.32 0 2.64 0 4 0 C4 4.29 4 8.58 4 13 C2.68 13 1.36 13 0 13 C0 8.71 0 4.42 0 0 Z " fill="#E9EFE7" transform="translate(130,197)"/>
<path d="M0 0 C4.29 0 8.58 0 13 0 C13 1.32 13 2.64 13 4 C8.71 4 4.42 4 0 4 C0 2.68 0 1.36 0 0 Z " fill="#E9EFE7" transform="translate(188,183)"/>
<path d="M0 0 C4.29 0 8.58 0 13 0 C13 1.32 13 2.64 13 4 C8.71 4 4.42 4 0 4 C0 2.68 0 1.36 0 0 Z " fill="#E9EFE7" transform="translate(159,183)"/>
<path d="M0 0 C4.29 0 8.58 0 13 0 C13 1.32 13 2.64 13 4 C8.71 4 4.42 4 0 4 C0 2.68 0 1.36 0 0 Z " fill="#E9EFE7" transform="translate(63,183)"/>
<path d="M0 0 C1.32 0 2.64 0 4 0 C4 2.97 4 5.94 4 9 C2.68 9 1.36 9 0 9 C0 6.03 0 3.06 0 0 Z " fill="#E9EFE7" transform="translate(201,201)"/>
<path d="M0 0 C1.65 0 3.3 0 5 0 C5 2.97 5 5.94 5 9 C6.32 9.33 7.64 9.66 9 10 C7.35 10 5.7 10 4 10 C4 8.35 4 6.7 4 5 C2.68 5 1.36 5 0 5 C0 3.35 0 1.7 0 0 Z " fill="#C9CFCA" transform="translate(67,196)"/>
<path d="M0 0 C1.32 0 2.64 0 4 0 C4 2.64 4 5.28 4 8 C2.68 8 1.36 8 0 8 C0 5.36 0 2.72 0 0 Z " fill="#E9EFE7" transform="translate(183,188)"/>
<path d="M0 0 C1.32 0 2.64 0 4 0 C4 2.64 4 5.28 4 8 C2.68 8 1.36 8 0 8 C0 5.36 0 2.72 0 0 Z " fill="#E9EFE7" transform="translate(134,188)"/>
<path d="M0 0 C1.32 0 2.64 0 4 0 C4 2.64 4 5.28 4 8 C2.68 8 1.36 8 0 8 C0 5.36 0 2.72 0 0 Z " fill="#E9EFE7" transform="translate(125,188)"/>
<path d="M0 0 C1.32 0 2.64 0 4 0 C4 2.64 4 5.28 4 8 C2.68 8 1.36 8 0 8 C0 5.36 0 2.72 0 0 Z " fill="#E9EFE7" transform="translate(76,188)"/>
<path d="M0 0 C1.65 0 3.3 0 5 0 C5 1.65 5 3.3 5 5 C3.35 5 1.7 5 0 5 C0 3.35 0 1.7 0 0 Z " fill="#D3D9D3" transform="translate(172,205)"/>
<path d="M0 0 C1.32 0 2.64 0 4 0 C4 1.65 4 3.3 4 5 C2.68 5 1.36 5 0 5 C0 3.35 0 1.7 0 0 Z " fill="#E1E7E0" transform="translate(183,205)"/>
</svg>
