<?xml version="1.0" encoding="UTF-8"?>
<svg version="1.1" xmlns="http://www.w3.org/2000/svg" width="448" height="448">
<path d="M0 0 C84.48 0 168.96 0 256 0 C256 31.68 256 63.36 256 96 C245.44 96 234.88 96 224 96 C224 127.68 224 159.36 224 192 C234.56 192 245.12 192 256 192 C256 202.56 256 213.12 256 224 C266.56 224 277.12 224 288 224 C288 234.56 288 245.12 288 256 C298.56 256 309.12 256 320 256 C320 287.68 320 319.36 320 352 C309.44 352 298.88 352 288 352 C288 362.56 288 373.12 288 384 C182.4 384 76.8 384 -32 384 C-32 373.44 -32 362.88 -32 352 C-42.56 352 -53.12 352 -64 352 C-64 320.32 -64 288.64 -64 256 C-53.44 256 -42.88 256 -32 256 C-32 245.44 -32 234.88 -32 224 C-21.44 224 -10.88 224 0 224 C0 213.44 0 202.88 0 192 C10.56 192 21.12 192 32 192 C32 160.32 32 128.64 32 96 C21.44 96 10.88 96 0 96 C0 64.32 0 32.64 0 0 Z " fill="#2A2C35" transform="translate(96,32)"/>
<path d="M0 0 C10.56 0 21.12 0 32 0 C32 10.56 32 21.12 32 32 C116.48 32 200.96 32 288 32 C288 21.44 288 10.88 288 0 C298.56 0 309.12 0 320 0 C320 10.56 320 21.12 320 32 C330.56 32 341.12 32 352 32 C352 63.68 352 95.36 352 128 C341.44 128 330.88 128 320 128 C320 138.56 320 149.12 320 160 C214.4 160 108.8 160 0 160 C0 149.44 0 138.88 0 128 C-10.56 128 -21.12 128 -32 128 C-32 96.32 -32 64.64 -32 32 C-21.44 32 -10.88 32 0 32 C0 21.44 0 10.88 0 0 Z " fill="#2A2C35" transform="translate(64,256)"/>
<path d="M0 0 C42.24 0 84.48 0 128 0 C128 31.68 128 63.36 128 96 C149.12 96 170.24 96 192 96 C192 117.12 192 138.24 192 160 C107.52 160 23.04 160 -64 160 C-64 138.88 -64 117.76 -64 96 C-42.88 96 -21.76 96 0 96 C0 64.32 0 32.64 0 0 Z " fill="#E9EFE7" transform="translate(160,128)"/>
<path d="M0 0 C63.36 0 126.72 0 192 0 C192 10.56 192 21.12 192 32 C128.64 32 65.28 32 0 32 C0 21.44 0 10.88 0 0 Z " fill="#E9EFE7" transform="translate(128,64)"/>
<path d="M0 0 C32.34 0 64.68 0 98 0 C98 10.56 98 21.12 98 32 C65.66 32 33.32 32 0 32 C0 21.44 0 10.88 0 0 Z " fill="#38EEB4" transform="translate(286,336)"/>
<path d="M0 0 C10.56 0 21.12 0 32 0 C32 10.56 32 21.12 32 32 C21.44 32 10.88 32 0 32 C0 21.44 0 10.88 0 0 Z " fill="#2A2C35" transform="translate(320,224)"/>
<path d="M0 0 C10.56 0 21.12 0 32 0 C32 10.56 32 21.12 32 32 C21.44 32 10.88 32 0 32 C0 21.44 0 10.88 0 0 Z " fill="#2A2C35" transform="translate(96,224)"/>
<path d="M0 0 C10.56 0 21.12 0 32 0 C32 10.56 32 21.12 32 32 C21.44 32 10.88 32 0 32 C0 21.44 0 10.88 0 0 Z " fill="#38EEB4" transform="translate(128,64)"/>
</svg>
